<svg xmlns="http://www.w3.org/2000/svg" viewBox="0 0 60.62 60.62"><defs><style>.cls-1{isolation:isolate;}.cls-2{fill:#c11e78;}.cls-3{fill:#7bd9c2;}.cls-4{fill:#437465;}.cls-5,.cls-9{fill:#f8e659;}.cls-5{mix-blend-mode:multiply;}.cls-6{fill:#a81b66;}.cls-7{fill:#74ccac;}.cls-8{fill:#ffff90;}</style></defs><title>Recurso 5</title><g class="cls-1"><g id="Capa_2" data-name="Capa 2"><g id="Layer_1" data-name="Layer 1"><path class="cls-2" d="M53.77,9.4H41.59a1.51,1.51,0,0,0-1.52,1.51V15H55.29V10.91A1.5,1.5,0,0,0,53.77,9.4Z"/><path class="cls-3" d="M57.6,15H37.28a3,3,0,0,0-3,3V57.6a3,3,0,0,0,3,3H57.6a3,3,0,0,0,3-3V18.05A3,3,0,0,0,57.6,15Z"/><path class="cls-4" d="M58.89,56.31a2.64,2.64,0,0,1-2.63,2.63H38.62A2.64,2.64,0,0,1,36,56.31V19.57a2.55,2.55,0,0,1,.8-1.86A2.59,2.59,0,0,1,38.62,17H56.26a2.62,2.62,0,0,1,2.63,2.61Z"/><path class="cls-5" d="M34.24,15.73l.64.5a2.94,2.94,0,0,0-.62,1.82v5.48l0,0,0,.07v6.17l-3.94.53-.86,6.33-5.91-2.41-3.91,5-3.91-5-5.9,2.41L9,30.32l-6.32-.86,2.42-5.91L0,19.64l5.05-3.91L2.63,9.83,9,9l.88-6.32,5.9,2.42,3.91-5,3.91,5.05,5.91-2.42L30.32,9l6.33.88Z"/><path class="cls-6" d="M55.29,10.91V15H47.68V9.4h6.09A1.5,1.5,0,0,1,55.29,10.91Z"/><path class="cls-7" d="M60.62,18.05V57.6a3,3,0,0,1-3,3H47.68V58.94h8.58a2.64,2.64,0,0,0,2.63-2.63V19.57A2.62,2.62,0,0,0,56.26,17H47.68V15H57.6A3,3,0,0,1,60.62,18.05Z"/><path class="cls-8" d="M31.65,19.64a12,12,0,1,1-12-12A12,12,0,0,1,31.65,19.64Z"/><path class="cls-8" d="M39.47,39h16a2.16,2.16,0,1,0,0-4.32h-16a2.22,2.22,0,0,0-1.54.63,2.14,2.14,0,0,0-.63,1.53A2.17,2.17,0,0,0,39.47,39Z"/><path class="cls-8" d="M55.43,47.05h-16a2.18,2.18,0,0,0-1.54.63,2.13,2.13,0,0,0-.63,1.52,2.17,2.17,0,0,0,2.17,2.17h16a2.16,2.16,0,1,0,0-4.32Z"/><path class="cls-8" d="M55.43,40.88h-16a2.21,2.21,0,0,0-1.54.62,2.17,2.17,0,0,0,1.54,3.7h16a2.16,2.16,0,1,0,0-4.32Z"/><path class="cls-9" d="M57.6,55.38a2.18,2.18,0,0,1-2.17,2.17H47.68V53.22h7.75A2.17,2.17,0,0,1,57.6,55.38Z"/><path class="cls-8" d="M47.68,53.22v4.33H39.47a2.17,2.17,0,0,1-1.54-3.7,2.22,2.22,0,0,1,1.54-.63Z"/><path class="cls-9" d="M57.6,49.2a2.17,2.17,0,0,1-2.17,2.17H47.68V47.05h7.75A2.16,2.16,0,0,1,57.6,49.2Z"/><path class="cls-9" d="M57.6,43a2.17,2.17,0,0,1-2.17,2.17H47.68V40.88h7.75A2.16,2.16,0,0,1,57.6,43Z"/><path class="cls-9" d="M57.6,36.86A2.17,2.17,0,0,1,55.43,39H47.68V34.7h7.75A2.17,2.17,0,0,1,57.6,36.86Z"/></g></g></g></svg>